<?xml version="1.0" encoding="UTF-8"?>
<svg version="1.1" viewBox="0 0 908 888" width="227" height="222" xmlns="http://www.w3.org/2000/svg">
<path transform="translate(9,396)" d="m0 0h407l-1 7-5 9-3 4h-2l-2 7-9 17-3 4h-2l-2 7-9 17-3 4h-2l-2 7-5 9-3 4h-2l-2 7-4 8-5 9-3 4h-2l-2 7-4 8-5 9-3 4h-2l-2 7-4 8-4 5h-2l-2 7-4 8-5 9-3 4h-2l-2 7-4 8-5 9-3 4h-2l-2 7-4 8-4 5h-2l-2 7-4 8-5 9-3 4h-2l-2 7-4 8-5 9-3 4h-2l-2 7-5 9-3 4h-2l-2 7-9 17-3 4h-2l-2 7-4 8-5 9-3 4h-2l-2 7-5 9-3 4h-2l-3 9-6 10-3 1-5-6-7-3-37-37 1-6 7-11 5-8 9-17 5-7 7-14 6-10 3-4 7-14 6-10 5-8 5-9 6-9 8-16 7-10 7-14 6-10 3-4 7-14 6-10 3-4 7-14 6-10 3-4 7-14 5-8 4-5 4-10v-22l-5-5-6-3-1-1-258-1-1-1-1-58-2-2 1-4z" fill="#020202"/>
<path transform="translate(453,468)" d="m0 0 4 2 9 17 5 6 7 14 6 8 6 12 6 8 6 12 6 8 6 12 6 8 6 12 6 8 6 12 6 8 6 12 6 8 6 12 6 8 9 19 7 9 4 7 4 5 9 19 7 9 6 12 6 8 6 12 6 8 6 12 6 8 6 12 6 8 6 12 6 8 6 12 6 8 1 5-2 3-23 11-17 9-8 4-5 5h-5l-9-11-6-12-6-8-6-12-6-8-6-12-6-8-9-19-7-9-6-12-6-8-6-12-6-8-9-19-7-9-6-12-6-8-6-12-6-8-6-12-6-7-3-7-7-14-5-6-11-6h-8l-10 5-3 4-2 5-4 8-4 5h-2l-2 7-4 8-4 5h-2l-2 7-4 8-4 5h-2l-2 7-5 9-3 4h-2l-2 7-5 9-3 4h-2l-2 7-4 8-5 9-5 6-2 5-5 9-5 6-2 5-5 9-5 6-2 5-5 9-3 4h-2l-2 7-5 9-3 4h-2l-2 7-9 17-3 4h-2l-2 7-4 9-6-1-56-28 1-4 3-6 6-7 3-7 6-10 5-8 9-17 5-7 6-12 6-8 7-14 6-10 3-4 6-12 6-8 7-14 6-10 3-4 6-12 6-7 3-7 6-10 3-4 7-14 6-10 3-4 6-12 6-8 7-14 6-10 3-4 6-12 6-7 3-7 6-10 3-4 7-14 6-10 3-4 6-12 6-7 4-8 3-7z" fill="#040404"/>
<path transform="translate(496,396)" d="m0 0h402l2 1v2l3 1 1 2v61l-5 1-262 1-7 7-1 2v20l8 16 5 9 6 9 6 11 6 9 8 15 4 7 5 8 9 17 6 9 8 15 4 7 5 8 5 9 6 9 8 15 4 7 5 8 9 17 6 9 6 11 6 9 8 15 4 7 3 3 5 10v7l-26 26-6 2-15 15-2 3h-2l-4-9-5-6-8-16-6-9-10-19-6-9-8-15-6-8-9-19-7-9-9-19-7-9-9-19-7-9-9-19-7-9-9-19-7-9-9-19-7-9-9-19-7-9-9-19-7-9-9-19-7-9-8-16-6-9-10-19-6-9-10-19z" fill="#020202"/>
<path transform="translate(441,8)" d="m0 0h28l5 3h7l8 3 16 8 8 5 7 6v2l4 2v2l4 2v2l4 2 8 10 7 14 2 9 2 2 1 6v38l-3 6-1 8-3 4-2 9-4 5h-2l-2 7-21 21-7 3-6 5-9 2-8 4-6 2h-45l-2-4h-9l-4-3-7-3-10-6-3-3-5-2-12-12-3-6-6-8-8-16-1-11-3-4v-36l3-4 2-9 5-10 5-9 2-5 12-13 5-5h2l1-3 13-8 16-8 13-2z" fill="#020202"/>
<path transform="translate(437,236)" d="m0 0h70l12 13 3 2v2h2l7 8 5 6 3 5 1 3 4 2v2h2v2h2v2h2v2h2l7 8 3 2v2h2v2l4 2 7 8 3 6 2 1v-79l1-1h54l1 1v122l-1 1h-73l-21-21-3-6-3-3v-2l-4-2v-2h-2l-7-8-9-9-3-6-11-12-8-8-2-1-1 79-2 1h-49l-1-1v-122z" fill="#050505"/>
<path transform="translate(101,232)" d="m0 0h85l6 3 9 3 14 7 5 6 4 9v7l-1 1h-54l-2-7-9-4h-38l-3 4-1 10 13 1 7 3 16 1 6 3 18 1 6 3 11 1 6 3 8 2 8 6 7 4 5 10 1 4v16l-7 8-10 10-8 4-10 2-2 2-22 2-1 2-16 1h-45l-7-1-2-2-14-2-2-2-9-2-11-6-6-8-4-8v-12l1-1h54l1 1v10l9 3 1 1 16 1 4 3h14l1-3 9-1 5-4v-6l-4-4-12-3-3-1-17-1-8-2-13-2-9-1-5-2-15-5-10-4-10-8-5-6-2-10-1-4 2-5 2-6 9-10 7-4 13-7 13-2z" fill="#060606"/>
<path transform="translate(729,236)" d="m0 0h66l4 5 3 6 5 6 3 6 6 9 7 10 6 9 7 11 7 10 7 11 6 9 7 10 4 6 5 7 3 5 1 3-7 1h-56l-4-9-5-5v-6h-92v6l-7 8-1 5-2 1h-57l-1-2 5-5 6-7 3-6 6-9 7-9 3-6 8-9 6-10 7-10 8-12 7-8 6-10 7-10 4-5zm29 31-9 17-5 6-4 7-7 11-1 4h52l1-2-6-13-6-11-4-5-6-12-2-2z" fill="#040404"/>
<path transform="translate(253,236)" d="m0 0h150l1 1v26l-1 1h-95l1 15 2 4 84 1 1 1v22l-2 1h-86v24h94l5 4 1 4v19l-2 1h-153l-1-1v-122z"/>
<path transform="translate(496,396)" d="m0 0h402l2 1v2l3 1 1 2v61l-4 1-1-64h-399l-1 5-3-4z" fill="#6B6B6B"/>
<path transform="translate(9,396)" d="m0 0h407l-1 7-3 3 1-6h-404l-1 3h-3l1-4z" fill="#6B6B6B"/>
<path transform="translate(308,332)" d="m0 0h94l5 4 1 4v19l-2 1h-153v-1h151v-23h-93l-3-1z" fill="#6F6F6F"/>
<path transform="translate(644,461)" d="m0 0h94l28 1 133 1v1h-259l4-1z" fill="#6D6D6D"/>
<path transform="translate(401,236)" d="m0 0 3 1v26l-1 1h-95l-1-3 2-1h91z" fill="#6D6D6D"/>
<path transform="translate(713,336)" d="m0 0h88l2 1v3h-90z" fill="#707070"/>
<path transform="translate(100,356)" d="m0 0h67l1 3-16 1h-45l-7-1z" fill="#7A7A7A"/>
<path transform="translate(901,400)" d="m0 0h2l1 2v61l-3 1z" fill="#BDBDBD"/>
<path transform="translate(392,284)" d="m0 0 4 1v22l-2 1h-86v-1h85z" fill="#6D6D6D"/>
<path transform="translate(441,8)" d="m0 0h28l2 1v2l-31 1v-3z" fill="#828282"/>
<path transform="translate(650,352)" d="m0 0h2l-2 4-2 3 52-1 3-1-1 3h-57l-1-2 5-5z" fill="#838383"/>
<path transform="translate(127,253)" d="m0 0h24v3h-31l3-2 4 1z" fill="#797979"/>
<path transform="translate(401,236)" d="m0 0 3 1v26h-3z" fill="#D0D0D0"/>
<path transform="translate(508,238)" d="m0 0 12 12 2 1v2h2l7 8 5 6h-3l-1-3h-2v-2l-4-2-12-12-7-8z" fill="#919191"/>
<path transform="translate(432,196)" d="m0 0 6 1v2l35-1 11-1-1 2-7 1h-43l-2-3z" fill="#787878"/>
<path transform="translate(139,783)" d="m0 0 4 2 21 21v2l-4-2-21-21z" fill="#ACACAC"/>
<path transform="translate(551,287)" d="m0 0 5 2 4 5 2 1v2h2v2l4 2 7 8v3l-12-11-9-9z" fill="#888"/>
<path transform="translate(392,284)" d="m0 0 4 1v22l-4 1z" fill="#6B6B6B"/>
<path transform="translate(281,477)" d="m0 0 2 1v15l-4 10-3 2 3-9 1-18z" fill="#6A6A6A"/>
<path transform="translate(533,161)" d="m0 0 3 1-22 22h-2l2-4 17-17h2z" fill="#919191"/>
<path transform="translate(169,264)" d="m0 0h3v3h51v1h-54z" fill="#7A7A7A"/>
<path transform="translate(125,765)" d="m0 0h2v6l4 2 9 9-2 2-14-14z" fill="#545454"/>
<path transform="translate(187,658)" d="m0 0 1 3-12 20-4 5 1-5 5-9 6-9z" fill="#898989"/>
<path transform="translate(512,304)" d="m0 0 5 2 3 5 8 7 3 5-2 1-7-8-9-9z" fill="#989898"/>
<path transform="translate(540,336)" d="m0 0 4 2 13 13 2 4-4-2-14-14z" fill="#8D8D8D"/>
<path transform="translate(101,232)" d="m0 0h16l1 2-11 1-7 1v-3z" fill="#aaa"/>
<path transform="translate(380,163)" d="m0 0 7 6 9 9v2l-4-2-11-11z" fill="#AFAFAF"/>
<path transform="translate(163,316)" d="m0 0 4 1 4 4-1 6-4 5h-2l2-4 1-1v-6z" fill="#7D7D7D"/>
<path transform="translate(406,338)" d="m0 0 2 2v19h-3z" fill="#AEAEAE"/>
<path transform="translate(488,276)" d="m0 0 3 1v2l4 2 8 9h-3l-9-9-3-2z" fill="#888"/>
<path transform="translate(410,20)" d="m0 0 3 1-7 4h-2v2l-8 6-3-1 3-1 1-3z" fill="#858585"/>
<path transform="translate(167,693)" d="m0 0 1 3-6 9-5 9-1-3 6-11z" fill="#878787"/>
<path transform="translate(361,104)" d="m0 0h1l1 19-3-1v-12z" fill="#7D7D7D"/>
<path transform="translate(120,308)" d="m0 0h7l11 2 1 2h-8l-8-2z" fill="#737373"/>
<path transform="translate(242,563)" d="m0 0v3l-9 16-1-3 6-11z" fill="#8E8E8E"/>
<path transform="translate(258,535)" d="m0 0v3l-9 16-1-3 6-11z" fill="#8A8A8A"/>
<path transform="translate(780,298)" d="m0 0 4 4 4 7v3l-4-2-4-9z" fill="#777"/>
<path transform="translate(56,335)" d="m0 0 5 4 5 5 3 4-6-2-7-9z" fill="#757575"/>
<path transform="translate(627,478)" d="m0 0h1v15l-2-1-2-7v-4h2z" fill="#6D6D6D"/>
<path transform="translate(768,783)" d="m0 0 2 1-12 12h-2l2-4 8-7z" fill="#C8C8C8"/>
<path transform="translate(361,84)" d="m0 0h2l-1 15h-1l-1-5v-8z" fill="#A8A8A8"/>
</svg>
